<svg width="11" height="11" viewBox="0 0 11 11" fill="none" xmlns="http://www.w3.org/2000/svg">
<g clip-path="url(#clip0)">
<path d="M8.65217 0H2.43478C1.64363 0 1 0.64363 1 1.43478V9.56522C1 10.4283 1.70215 11.1304 2.56522 11.1304H8.65217C8.84428 11.1304 9 10.9747 9 10.7826C9 10.5905 8.84428 10.4348 8.65217 10.4348H2.56522C2.08574 10.4348 1.69565 10.0447 1.69565 9.56522C1.69565 9.08574 2.08574 8.69565 2.56522 8.69565H8.65217C8.84428 8.69565 9 8.53991 9 8.34783V0.347826C9 0.155739 8.84428 0 8.65217 0ZM1.69565 8.07459V1.43478C1.69565 1.02657 2.02657 0.695652 2.43478 0.695652H2.45652C2.51654 0.695652 2.56522 0.744326 2.56522 0.804348V7.89487C2.56522 7.95172 2.52146 7.99957 2.46474 8.0032C2.2455 8.01717 2.03841 8.07652 1.85274 8.17189C1.78093 8.20876 1.69565 8.15528 1.69565 8.07459Z" fill="white"/>
<path d="M8.65158 9.21738H2.56462C2.37251 9.21738 2.2168 9.37312 2.2168 9.5652C2.2168 9.75729 2.37251 9.91303 2.56462 9.91303H8.65158C8.84369 9.91303 8.9994 9.75729 8.9994 9.5652C8.9994 9.37312 8.84369 9.21738 8.65158 9.21738Z" fill="white"/>
</g>
<defs>
<clipPath id="clip0">
<rect width="11" height="11" fill="white"/>
</clipPath>
</defs>
</svg>
