<svg width="15" height="9" viewBox="0 0 15 9" fill="none" xmlns="http://www.w3.org/2000/svg">
<path d="M7.5 0C4.63409 0 2.03513 1.56797 0.117367 4.11476C-0.0391224 4.32341 -0.0391224 4.61491 0.117367 4.82357C2.03513 7.37343 4.63409 8.94139 7.5 8.94139C10.3659 8.94139 12.9649 7.37343 14.8826 4.82663C15.0391 4.61798 15.0391 4.32648 14.8826 4.11783C12.9649 1.56797 10.3659 0 7.5 0ZM7.70558 7.6189C5.80316 7.73857 4.23213 6.17061 4.35179 4.26511C4.44998 2.69408 5.72338 1.42068 7.29442 1.32249C9.19684 1.20282 10.7679 2.77079 10.6482 4.67628C10.5469 6.24425 9.27355 7.51764 7.70558 7.6189ZM7.61046 6.16447C6.58561 6.22891 5.73872 5.38509 5.80623 4.36023C5.85839 3.51335 6.54572 2.82909 7.39261 2.77386C8.41746 2.70942 9.26435 3.55324 9.19684 4.57809C9.14161 5.42805 8.45428 6.1123 7.61046 6.16447Z" fill="white"/>
</svg>
