<svg width="17" height="16" viewBox="0 0 17 16" fill="none" xmlns="http://www.w3.org/2000/svg">
<path d="M4.3717 3.41145C4.7267 2.14351 5.22567 0.958702 5.82623 0.209045C4.3693 0.623264 3.08505 1.57308 2.0957 2.66742C2.72914 2.96426 3.49402 3.21989 4.3717 3.41145Z" fill="white"/>
<path d="M8.46875 0V3.76481C9.24334 3.74462 9.99666 3.67962 10.7109 3.56762C10.1766 1.69631 9.33363 0.334062 8.46875 0Z" fill="white"/>
<path d="M7.53256 4.70884C6.66997 4.68859 5.84272 4.61384 5.06475 4.48981C4.87581 5.3964 4.75712 6.41715 4.73047 7.53124H7.53256V4.70884Z" fill="white"/>
<path d="M0 7.53124H3.79212C3.81925 6.38478 3.94228 5.30234 4.14884 4.31878C3.14372 4.09721 2.24353 3.79149 1.49284 3.41562C0.660563 4.59337 0.0895 6.00465 0 7.53124Z" fill="white"/>
<path d="M7.53227 0C6.66573 0.334688 5.82127 1.70122 5.28711 3.57869C5.98192 3.68528 6.73233 3.75219 7.53227 3.77141V0Z" fill="white"/>
<path d="M11.8496 4.30844C12.0575 5.29481 12.1815 6.38072 12.2087 7.53125H16.0008C15.9109 5.99706 15.3346 4.5796 14.495 3.39835C13.7394 3.77431 12.8495 4.08585 11.8496 4.30844Z" fill="white"/>
<path d="M4.14803 11.6775C3.94194 10.6949 3.81919 9.61372 3.79212 8.46875H0C0.0886875 9.98253 0.651 11.3835 1.47103 12.5553C2.25975 12.1925 3.15731 11.8924 4.14803 11.6775Z" fill="white"/>
<path d="M8.46875 7.53124H11.2708C11.2441 6.41355 11.1247 5.38977 10.9347 4.48099C10.1511 4.60818 9.32272 4.68074 8.46878 4.70174V7.53124H8.46875Z" fill="white"/>
<path d="M13.9155 13.3203C13.2339 13.0288 12.4635 12.785 11.6246 12.6019C11.2698 13.8639 10.7723 15.0439 10.1738 15.7909C11.6362 15.3752 12.9247 14.4209 13.9155 13.3203Z" fill="white"/>
<path d="M10.1738 0.209045C10.773 0.956983 11.271 2.1387 11.6259 3.40276C12.4813 3.21526 13.2422 2.95845 13.8943 2.65639C12.9063 1.56764 11.6259 0.621827 10.1738 0.209045Z" fill="white"/>
<path d="M7.53256 8.46875H4.73047C4.75712 9.58134 4.87541 10.6009 5.06394 11.5066C5.84575 11.3828 6.67488 11.3135 7.53253 11.2933V8.46875H7.53256Z" fill="white"/>
<path d="M2.08398 13.3203C3.07477 14.4209 4.36323 15.3752 5.82564 15.791C5.22717 15.044 4.7297 13.8639 4.37486 12.6019C3.53602 12.7851 2.76555 13.0288 2.08398 13.3203Z" fill="white"/>
<path d="M11.8535 11.6775C12.8442 11.8924 13.7418 12.1925 14.5305 12.5553C15.3505 11.3835 15.9129 9.98253 16.0015 8.46875H12.2094C12.1824 9.61372 12.0596 10.6949 11.8535 11.6775Z" fill="white"/>
<path d="M7.53206 16V12.2304C6.75731 12.2507 6.00444 12.3168 5.28906 12.4293C5.82334 14.3024 6.66672 15.6658 7.53206 16Z" fill="white"/>
<path d="M8.46875 11.2933C9.32644 11.3135 10.1556 11.3828 10.9373 11.5066C11.1259 10.6009 11.2442 9.58134 11.2708 8.46875H8.46875V11.2933Z" fill="white"/>
<path d="M8.46875 16C9.33409 15.6658 10.1775 14.3024 10.7118 12.4293C9.99638 12.3168 9.24353 12.2507 8.46875 12.2304V16Z" fill="white"/>
</svg>
