<?xml version="1.0" encoding="utf-8"?>
<!-- Generator: Adobe Illustrator 22.1.0, SVG Export Plug-In . SVG Version: 6.00 Build 0)  -->
<svg version="1.1" id="Слой_1" xmlns="http://www.w3.org/2000/svg" xmlns:xlink="http://www.w3.org/1999/xlink" x="0px" y="0px"
	 viewBox="0 0 17 17" style="enable-background:new 0 0 17 17;" xml:space="preserve">
<style type="text/css">
	.st0{clip-path:url(#SVGID_2_);}
	.st1{fill:#FFFFFF;}
</style>
<g>
	<defs>
		<rect id="SVGID_1_" width="17" height="17"/>
	</defs>
	<clipPath id="SVGID_2_">
		<use xlink:href="#SVGID_1_"  style="overflow:visible;"/>
	</clipPath>
	<g class="st0">
		<path class="st1" d="M16.7,4.3l-8-2.8c-0.1,0-0.2,0-0.3,0l-8,2.8C0.1,4.3,0,4.5,0,4.7c0,0.2,0.1,0.4,0.3,0.5l8,2.8
			c0.1,0,0.1,0,0.2,0c0.1,0,0.1,0,0.2,0l8-2.8C16.9,5.1,17,4.9,17,4.7C17,4.5,16.9,4.3,16.7,4.3z"/>
		<path class="st1" d="M8.5,9.1C8.3,9.1,8.2,9,8,9L3.5,7.4v2.2c0,0.5,0.6,1,1.7,1.3c1,0.3,2.1,0.5,3.3,0.5c1.2,0,2.4-0.2,3.3-0.5
			c1.1-0.4,1.7-0.8,1.7-1.3V7.4L9,9C8.8,9,8.7,9.1,8.5,9.1z"/>
	</g>
</g>
</svg>
