<svg width="19" height="19" viewBox="0 0 19 19" fill="none" xmlns="http://www.w3.org/2000/svg">
<path d="M18.774 0.173912C18.6297 0.0463217 18.4384 -0.0149484 18.2468 0.00493157L6.03251 1.36206C5.6887 1.40011 5.42855 1.69068 5.42859 2.03655V14.1294C4.81359 13.7614 4.1096 13.5687 3.39288 13.5723C1.52205 13.5723 0 14.7897 0 16.2866C0 17.7835 1.52205 19.0009 3.39284 19.0009C5.26363 19.0009 6.78568 17.7842 6.78568 16.2866V6.04018L17.6428 4.83096V12.7702C17.0276 12.4029 16.3236 12.211 15.6071 12.2152C13.7363 12.2152 12.2143 13.4325 12.2143 14.9295C12.2143 16.4264 13.7363 17.6437 15.6071 17.6437C17.4779 17.6437 19 16.4271 19 14.9295V0.67946C19 0.486465 18.9178 0.302615 18.774 0.173912Z" fill="#F2F2F2"/>
</svg>
